#!OML:ASF H:\Pregnant\Project 1\Capture day 1\Session 1\femalepreg.ASF
:FULLY-SPECIFIED
:DEGREES
517
root 1.04306 16.0351 -26.7614 -167.69 64.7567 -187.74
lowerback -16.6558 -1.86902 -2.61554
upperback -4.5708 -1.76625 1.05703
thorax 4.56576 -0.745407 2.25292
lowerneck -11.7613 -11.6952 -7.82058
upperneck 25.9336 -16.0492 6.64122
head 11.5919 -7.04507 1.47118
rclavicle -2.44505e-014 -2.70347e-014
rhumerus -32.844 1.24736 -82.2699
rradius 25.326
rwrist -2.66071
rhand -12.1556 -12.5717
rfingers 7.12502
rthumb 13.9071 -42.0867
lclavicle -2.44505e-014 -2.70347e-014
lhumerus -40.7179 -1.68164 84.504
lradius 26.1304
lwrist 40.303
lhand -22.5545 -5.24571
lfingers 7.12502
lthumb 3.87327 24.6988
rfemur -47.2142 12.2765 23.4299
rtibia 37.4888
rfoot -5.9925 -14.267
rtoes 14.0956
lfemur -16.5207 2.14839 -24.6622
ltibia 41.8578
lfoot 5.93702 -9.6573
ltoes -30.8297
518
root 1.1541 16.0357 -26.8013 -167.759 64.8601 -187.545
lowerback -16.5257 -1.96694 -2.40817
upperback -4.54671 -1.94829 1.23513
thorax 4.53202 -0.836269 2.28851
lowerneck -11.6454 -11.7723 -7.90898
upperneck 25.8887 -16.1246 6.56721
head 11.5594 -7.1029 1.45238
rclavicle -2.91716e-014 3.26007e-014
rhumerus -32.8992 1.61129 -82.1984
rradius 25.5973
rwrist -3.252
rhand -12.2467 -12.7728
rfingers 7.12502
rthumb 13.8193 -42.2937
lclavicle -2.91716e-014 3.26007e-014
lhumerus -41.4963 -1.55995 84.9069
lradius 26.1245
lwrist 40.8057
lhand -22.6709 -4.98813
lfingers 7.12502
lthumb 3.76093 24.9584
rfemur -46.4476 12.0937 23.884
rtibia 37.5618
rfoot -6.49391 -14.064
rtoes 13.9916
lfemur -17.5348 1.87916 -24.2647
ltibia 43.9927
lfoot 8.27073 -10.119
ltoes -27.856
519
root 1.26457 16.037 -26.8392 -167.788 64.9656 -187.29
lowerback -16.3782 -2.05996 -2.19793
upperback -4.51051 -2.12503 1.41773
thorax 4.50132 -0.925087 2.32893
lowerneck -11.5242 -11.859 -8.02103
upperneck 25.8248 -16.2166 6.52221
head 11.5253 -7.1679 1.44512
rclavicle 5.43179e-014 1.90833e-014
rhumerus -32.9255 1.99363 -82.1369
rradius 25.8793
rwrist -3.80359
rhand -12.2601 -12.9143
rfingers 7.12502
rthumb 13.8063 -42.4361
lclavicle 5.43179e-014 1.90833e-014
lhumerus -42.2286 -1.53545 85.3659
lradius 26.1283
lwrist 41.2977
lhand -22.688 -4.70645
lfingers 7.12502
lthumb 3.74442 25.2404
rfemur -45.6328 11.9641 24.3329
rtibia 37.5625
rfoot -6.95678 -13.9141
rtoes 13.8965
lfemur -18.5369 1.49795 -23.8239
ltibia 46.0679
lfoot 10.4971 -10.5467
ltoes -24.6119
520
root 1.37389 16.0381 -26.8752 -167.762 65.0884 -186.957
lowerback -16.2025 -2.14899 -1.97725
upperback -4.46571 -2.29875 1.60267
thorax 4.46392 -1.01276 2.3675
lowerneck -11.3875 -11.9464 -8.12255
upperneck 25.7366 -16.3166 6.49506
head 11.4804 -7.2348 1.44265
rclavicle 1.13059e-014 2.94201e-014
rhumerus -32.9347 2.45166 -82.1144
rradius 26.1798
rwrist -4.36494
rhand -12.2098 -12.9873
rfingers 7.12502
rthumb 13.8548 -42.5059
lclavicle 1.13059e-014 2.94201e-014
lhumerus -42.9155 -1.58633 85.8565
lradius 26.1327
lwrist 41.7526
lhand -22.56 -4.34536
lfingers 7.12502
lthumb 3.86798 25.5993
rfemur -44.7734 11.8558 24.8073
rtibia 37.4979
rfoot -7.38219 -13.7597
rtoes 13.7538
lfemur -19.5305 1.04628 -23.3451
ltibia 48.0975
lfoot 12.4809 -11.0125
ltoes -21.5589
521
root 1.48165 16.0383 -26.9092 -167.66 65.2429 -186.531
lowerback -15.9997 -2.21432 -1.72389
upperback -4.41889 -2.44533 1.77768
thorax 4.41046 -1.08686 2.38362
lowerneck -11.2268 -12.048 -8.21018
upperneck 25.6285 -16.4439 6.48123
head 11.4257 -7.31255 1.44023
rclavicle 4.82053e-015 2.62396e-014
rhumerus -32.9307 2.87509 -82.0982
rradius 26.4722
rwrist -4.85341
rhand -12.0964 -12.9671
rfingers 7.12502
rthumb 13.9641 -42.4781
lclavicle 4.82053e-015 2.62396e-014
lhumerus -43.56 -1.75482 86.388
lradius 26.1421
lwrist 42.1957
lhand -22.2449 -3.78212
lfingers 7.12502
lthumb 4.1723 26.1568
rfemur -43.888 11.7804 25.3103
rtibia 37.3801
rfoot -7.76907 -13.5946
rtoes 13.6069
lfemur -20.5305 0.576895 -22.8369
ltibia 50.0901
lfoot 14.0785 -11.6075
ltoes -19.1698
522
root 1.58746 16.0365 -26.9413 -167.457 65.4355 -185.999
lowerback -15.7771 -2.25423 -1.4366
upperback -4.37433 -2.56191 1.95145
thorax 4.34025 -1.1457 2.38625
lowerneck -11.0371 -12.1613 -8.30518
upperneck 25.4937 -16.5928 6.49072
head 11.3604 -7.39981 1.44584
rclavicle 1.03617e-014 -1.98785e-014
rhumerus -32.9331 3.34818 -82.104
rradius 26.7867
rwrist -5.33361
rhand -11.9682 -12.9372
rfingers 7.12502
rthumb 14.0877 -42.4397
lclavicle 1.03617e-014 -1.98785e-014
lhumerus -44.1522 -2.00078 86.95
lradius 26.1466
lwrist 42.6571
lhand -21.7253 -2.90368
lfingers 7.12502
lthumb 4.67407 27.0248
rfemur -43.0037 11.8142 25.8154
rtibia 37.2283
rfoot -8.10741 -13.4892
rtoes 13.4473
lfemur -21.5533 0.126553 -22.3047
ltibia 52.0455
lfoot 15.1762 -12.3687
ltoes -17.6559
523
root 1.69047 16.032 -26.9725 -167.158 65.6645 -185.365
lowerback -15.5321 -2.27451 -1.11027
upperback -4.32891 -2.65691 2.12842
thorax 4.25549 -1.19358 2.37544
lowerneck -10.8427 -12.2832 -8.40389
upperneck 25.3433 -16.7558 6.51003
head 11.2913 -7.49357 1.45375
rclavicle -4.28629e-014 2.54444e-014
rhumerus -32.9197 3.82609 -82.1011
rradius 27.101
rwrist -5.75815
rhand -11.8358 -12.851
rfingers 7.12502
rthumb 14.2153 -42.3445
lclavicle -4.28629e-014 2.54444e-014
lhumerus -44.6844 -2.28223 87.5262
lradius 26.1506
lwrist 43.1998
lhand -21.1292 -1.74811
lfingers 7.12502
lthumb 5.24963 28.1669
rfemur -42.1302 11.9172 26.3347
rtibia 37.0615
rfoot -8.41026 -13.403
rtoes 13.2837
lfemur -22.5941 -0.269592 -21.7718
ltibia 53.9541
lfoot 15.689 -13.3202
ltoes -17.2294
524
root 1.79055 16.0244 -27.0033 -166.758 65.931 -184.637
lowerback -15.2771 -2.26503 -0.737394
upperback -4.28447 -2.71655 2.30238
thorax 4.15959 -1.22351 2.34263
lowerneck -10.6429 -12.424 -8.52361
upperneck 25.1765 -16.9469 6.54943
head 11.2221 -7.60047 1.46775
rclavicle -3.48122e-014 4.77083e-014
rhumerus -32.9069 4.31827 -82.0911
rradius 27.4323
rwrist -6.15838
rhand -11.7434 -12.7633
rfingers 7.12502
rthumb 14.3042 -42.2506
lclavicle -3.48122e-014 4.77083e-014
lhumerus -45.1482 -2.58984 88.1013
lradius 26.1512
lwrist 43.8645
lhand -20.5329 -0.366897
lfingers 7.12502
lthumb 5.82534 29.533
rfemur -41.2859 12.0864 26.8632
rtibia 36.8932
rfoot -8.68589 -13.3332
rtoes 13.1454
lfemur -23.6611 -0.591958 -21.2512
ltibia 55.8021
lfoot 15.6098 -14.3767
ltoes -17.7786
525
root 1.88771 16.0151 -27.0344 -166.272 66.2412 -183.845
lowerback -15.0318 -2.25282 -0.345307
upperback -4.23906 -2.77257 2.48291
thorax 4.06844 -1.25136 2.30663
lowerneck -10.4509 -12.5585 -8.63031
upperneck 24.996 -17.1291 6.58166
head 11.1469 -7.70371 1.47868
rclavicle 2.24875e-014 -7.95139e-015
rhumerus -32.8588 4.82985 -82.081
rradius 27.753
rwrist -6.48987
rhand -11.6903 -12.6484
rfingers 7.12502
rthumb 14.3555 -42.1321
lclavicle 2.24875e-014 -7.95139e-015
lhumerus -45.5359 -2.82454 88.6172
lradius 26.1432
lwrist 44.6689
lhand -20.0499 1.08635
lfingers 7.12502
lthumb 6.29162 30.9729
rfemur -40.4857 12.29 27.3954
rtibia 36.7304
rfoot -8.93714 -13.245
rtoes 12.9961
lfemur -24.7565 -0.871836 -20.7424
ltibia 57.5782
lfoot 15.0647 -15.3296
ltoes -18.6945
526
root 1.98245 16.0056 -27.0664 -165.741 66.603 -183.039
lowerback -14.8168 -2.22612 0.0566675
upperback -4.18475 -2.80807 2.65325
thorax 4.00047 -1.26904 2.25739
lowerneck -10.2572 -12.6938 -8.73393
upperneck 24.7826 -17.318 6.6362
head 11.0622 -7.80882 1.49655
rclavicle -2.93207e-014 -1.66979e-014
rhumerus -32.784 5.36843 -82.0785
rradius 28.0856
rwrist -6.80817
rhand -11.7029 -12.5339
rfingers 7.12502
rthumb 14.3433 -42.0184
lclavicle -2.93207e-014 -1.66979e-014
lhumerus -45.8337 -3.0154 89.0695
lradius 26.1293
lwrist 45.6161
lhand -19.6421 2.47289
lfingers 7.12502
lthumb 6.68537 32.3474
rfemur -39.7309 12.4811 27.9227
rtibia 36.5771
rfoot -9.18022 -13.0879
rtoes 12.8072
lfemur -25.8691 -1.13853 -20.2524
ltibia 59.2677
lfoot 14.2097 -16.0025
ltoes -19.4969
527
root 2.07578 15.9964 -27.099 -165.197 67.0241 -182.249
lowerback -14.6418 -2.18749 0.441263
upperback -4.11305 -2.82404 2.81158
thorax 3.9714 -1.27733 2.20764
lowerneck -10.069 -12.8301 -8.83244
upperneck 24.5419 -17.5128 6.70956
head 10.9709 -7.91526 1.51941
rclavicle 9.93923e-015 2.14687e-014
rhumerus -32.6676 5.87919 -82.0805
rradius 28.4244
rwrist -7.07151
rhand -11.7736 -12.4276
rfingers 7.12502
rthumb 14.2752 -41.9169
lclavicle 9.93923e-015 2.14687e-014
lhumerus -46.0404 -3.1697 89.4558
lradius 26.11
lwrist 46.6484
lhand -19.2047 3.66481
lfingers 7.12502
lthumb 7.10753 33.5255
rfemur -39.0137 12.6539 28.4343
rtibia 36.4391
rfoot -9.41898 -12.8583
rtoes 12.5927
lfemur -26.9805 -1.386 -19.7877
ltibia 60.8514
lfoot 13.1793 -16.3346
ltoes -20.0882
528
root 2.16829 15.9883 -27.1321 -164.69 67.5089 -181.54
lowerback -14.5301 -2.13925 0.777487
upperback -4.02101 -2.82048 2.949
thorax 3.99828 -1.27625 2.16472
lowerneck -9.88496 -12.963 -8.92247
upperneck 24.2666 -17.7108 6.81563
head 10.8713 -8.02032 1.55214
rclavicle 3.08116e-014 -2.8625e-014
rhumerus -32.4922 6.31324 -82.0652
rradius 28.7414
rwrist -7.25042
rhand -11.9065 -12.3216
rfingers 7.12502
rthumb 14.1471 -41.8199
lclavicle 3.08116e-014 -2.8625e-014
lhumerus -46.1454 -3.27872 89.7646
lradius 26.0723
lwrist 47.6399
lhand -18.7685 4.53612
lfingers 7.12502
lthumb 7.52863 34.3821
rfemur -38.3527 12.8104 28.8971
rtibia 36.328
rfoot -9.67118 -12.5596
rtoes 12.404
lfemur -28.091 -1.6293 -19.3685
ltibia 62.3099
lfoot 12.0883 -16.2913
ltoes -20.4107
529
root 2.26064 15.9812 -27.1655 -164.285 68.0596 -180.973
lowerback -14.4793 -2.06599 1.05059
upperback -3.90771 -2.77575 3.04708
thorax 4.08019 -1.25524 2.12144
lowerneck -9.70393 -13.1125 -9.01723
upperneck 23.9698 -17.9401 6.96108
head 10.7727 -8.13652 1.59407
rclavicle -2.88238e-015 0
rhumerus -32.2705 6.60134 -82.0184
rradius 29.0348
rwrist -7.34929
rhand -12.0929 -12.1655
rfingers 7.12502
rthumb 13.9674 -41.6763
lclavicle -2.88238e-015 0
lhumerus -46.1686 -3.42302 90.0331
lradius 26.0313
lwrist 48.4877
lhand -18.3756 5.08369
lfingers 7.12502
lthumb 7.90785 34.9158
rfemur -37.7457 12.9408 29.2909
rtibia 36.2614
rfoot -9.95301 -12.1912
rtoes 12.3242
lfemur -29.1772 -1.86447 -19.0169
ltibia 63.618
lfoot 10.9898 -15.9181
ltoes -20.582
530
root 2.3533 15.9746 -27.1982 -164.011 68.6728 -180.574
lowerback -14.4798 -1.99001 1.22142
upperback -3.78024 -2.71474 3.12713
thorax 4.20862 -1.22675 2.11836
lowerneck -9.52411 -13.2622 -9.11962
upperneck 23.6623 -18.1712 7.12458
head 10.6744 -8.25293 1.64291
rclavicle 9.54166e-015 7.95139e-016
rhumerus -32.0137 6.83829 -81.9529
rradius 29.3081
rwrist -7.41744
rhand -12.3703 -12.0446
rfingers 7.12502
rthumb 13.7002 -41.5736
lclavicle 9.54166e-015 7.95139e-016
lhumerus -46.1244 -3.52865 90.2545
lradius 25.9758
lwrist 49.0319
lhand -18.0663 5.34153
lfingers 7.12502
lthumb 8.20635 35.1622
rfemur -37.1955 13.1312 29.5814
rtibia 36.2507
rfoot -10.2591 -11.8431
rtoes 12.3582
lfemur -30.2315 -2.08217 -18.7408
ltibia 64.7627
lfoot 9.88031 -15.3159
ltoes -20.7596
